<?xml version="1.0" encoding="UTF-8"?>
<svg id="Capa_1" data-name="Capa 1" xmlns="http://www.w3.org/2000/svg" viewBox="0 0 130.69 132.96">
  <defs>
    <style>
      .cls-1 {
        fill: #0760ba;
      }

      .cls-2 {
        fill: #4b5056;
      }
    </style>
  </defs>
  <path class="cls-2" d="M114.97,67.3c7.33,17.52,4.77,38.37-4.14,54.83-1.17,2.17-6.15,10.61-8.34,10.82-2.58.25-11.76-3.34-14.6-4.55-16.92-7.25-30.41-21.39-36.21-38.79,23.27,3.15,47.53-4.05,62.64-22.31h.64Z"/>
  <path class="cls-1" d="M114.97,67.3h-.64c-7.64-21.96-27.82-39.46-51.14-42.71.1-.14-.1-.5,0-.64C76.93,6.11,100.72-1.89,122.95.38c5.08.52,4.85,3.79,5.87,8.17,5.05,21.61-.37,41.56-13.86,58.76Z"/>
  <path class="cls-2" d="M63.19,23.96c-.1.13.1.5,0,.64-4.08,5.44-7.37,9.99-10.14,16.34-6.96,15.99-6.62,32.07-2.01,48.67C27.46,86.28,8.6,68.7,0,47.1c14.75-19.26,39.31-26.97,63.19-23.15Z"/>
</svg>