<?xml version="1.0" encoding="UTF-8"?>
<svg id="Capa_1" data-name="Capa 1" xmlns="http://www.w3.org/2000/svg" viewBox="0 0 351.34 132.96">
  <defs>
    <style>
      .cls-1 {
        fill: #0760ba;
      }

      .cls-2 {
        fill: #4b5056;
      }
    </style>
  </defs>
  <polygon class="cls-1" points="0 46.27 24.93 46.26 24.93 52.64 7.67 52.64 7.67 62.2 23.65 62.2 23.65 68.57 7.67 68.57 7.67 83.23 0 83.23 0 46.27"/>
  <path class="cls-2" d="M335.61,67.3c7.33,17.52,4.77,38.37-4.14,54.83-1.17,2.17-6.15,10.61-8.34,10.82-2.58.25-11.76-3.34-14.6-4.55-16.92-7.25-30.41-21.39-36.21-38.79,23.27,3.15,47.53-4.05,62.64-22.31h.64Z"/>
  <path class="cls-1" d="M335.61,67.3h-.64c-7.64-21.96-27.82-39.46-51.14-42.71.1-.14-.1-.5,0-.64C297.57,6.11,321.37-1.89,343.6.38c5.08.52,4.85,3.79,5.87,8.17,5.05,21.61-.37,41.56-13.86,58.76Z"/>
  <path class="cls-2" d="M283.83,23.96c-.1.13.1.5,0,.64-4.08,5.44-7.37,9.99-10.14,16.34-6.96,15.99-6.62,32.07-2.01,48.67-23.58-3.32-42.43-20.91-51.04-42.5,14.75-19.26,39.31-26.97,63.19-23.15Z"/>
  <polygon class="cls-1" points="62.65 46.27 77.99 75.59 77.99 46.27 85.02 46.27 85.02 83.23 73.2 83.23 58.17 54.55 58.17 83.23 50.5 83.23 50.5 46.27 62.65 46.27"/>
  <path class="cls-1" d="M158.22,46.27c2.59.36,6.59,2.78,7.22,5.55.43,1.9.4,9.88-.15,11.69-.83,2.72-4.83,3.79-4.83,4.11,1.43.42,5.12,3.03,5.12,4.46v11.15h-7.04c-.02-3.05.59-9.52-2.3-11.41-.32-.21-3.57-1.34-3.77-1.34h-9.27v12.75h-7.67v-36.97c7.04.71,15.89-.96,22.69,0ZM142.56,64.75h12.47c.29,0,2.66-1.76,2.92-2.19,1.55-2.58.44-9.92-2.92-9.92h-12.47v12.11Z"/>
  <path class="cls-1" d="M107.27,46.46c5-.3,14.58-.2,17.24,4.74,2.81,5.22,3.4,24.55-.78,28.88s-21.13,4.16-26.14,1.15c-5.15-3.09-4.68-15.3-4.27-20.65.81-10.7,3.2-13.47,13.96-14.12ZM101.79,76.07c1.82,2.11,15.55,2.9,16.97-2.22,1.07-3.85.64-12.28.09-16.37s-2.39-4.37-6.1-4.76c-2.67-.28-9.1-.29-10.78,1.83-.93,1.17-1.62,9.61-1.64,11.76-.02,1.62.72,8.89,1.46,9.75Z"/>
  <polygon class="cls-1" points="199.45 46.27 199.45 52.64 181.55 52.64 181.55 61.56 198.17 61.56 198.17 66.66 181.55 66.66 181.55 76.86 199.45 76.86 199.45 83.23 173.88 83.23 173.88 46.27 199.45 46.27"/>
  <path class="cls-1" d="M40.27,46.27v36.97h-7.67v-36.01c0-1.51,6.31-.83,7.67-.96Z"/>
</svg>